<svg width="60" height="66" viewBox="0 0 60 66" fill="none" xmlns="http://www.w3.org/2000/svg">
<ellipse cx="30" cy="32.9183" rx="21" ry="21" fill="white"/>
<path d="M53.9959 15.4192C57.0618 11.2954 58.5687 3.8541 53.3323 0.9059C48.2836 -1.93604 42.6674 2.49975 41.1794 7.73836C33.8388 5.73129 26.1593 5.73804 18.8155 7.73836C17.2503 2.13713 10.5354 -2.65285 5.64747 1.675C1.52399 5.32482 3.31934 11.4371 5.98637 15.4158C-0.195705 22.9567 -2.01313 34.6348 2.54383 43.6126C7.60991 53.5939 19.9977 56.5354 27.5495 63.4067C28.158 63.9599 29.3134 65.5419 29.8367 65.8522C29.9486 65.918 30.0022 65.9686 30.1519 65.9315C31.011 64.4945 32.51 63.1908 33.8246 62.1839C41.7815 56.0868 53.6712 52.5246 58.0327 42.3797C61.8252 33.5587 59.9495 22.6025 53.9959 15.4192ZM17.9123 27.2794C15.1539 29.3017 15.3509 24.8895 16.5299 23.1017C17.0785 22.2702 18.1393 21.5888 19.0819 21.4488C20.0024 21.3122 21.5913 21.6057 21.9995 22.6328C22.5134 23.9265 20.4454 24.4156 19.7486 25.0261C19.0188 25.6654 18.7572 26.6605 17.9123 27.2794ZM32.9908 49.821C25.7495 52.813 16.8468 43.729 19.0441 35.4055C19.9583 31.9395 25.7841 24.0445 29.1683 23.4694C32.4769 22.9077 36.5515 27.7837 38.4147 30.3609C43.9851 38.0687 41.1968 46.4292 32.9908 49.821ZM44.1916 26.8932C43.2947 29.7992 40.8311 25.5119 40.1643 24.9452C39.4534 24.3414 37.2813 23.8708 38.0285 22.4895C38.3343 21.9244 39.1397 21.5332 39.7324 21.4471C42.4956 21.044 45.0491 24.1154 44.1916 26.8932ZM28.8626 34.9485C26.1845 35.2082 22.5008 36.8931 24.8888 40.2798C25.8157 41.5937 28.6104 43.9448 30.2118 43.8251C31.7786 43.707 35.363 40.5767 35.7555 38.9508C36.6272 35.3465 31.0504 34.736 28.8626 34.9485ZM26.7567 45.871C27.4896 46.9538 29.389 47.3248 30.5555 47.2169C31.6021 47.119 33.522 46.3415 33.4652 45.0175H26.7614C26.257 44.9905 26.5912 45.6281 26.7567 45.871Z" fill="#653B1A"/>
</svg>
